<?xml version="1.0" encoding="utf-8"?>
<!-- Generator: Adobe Illustrator 25.0.1, SVG Export Plug-In . SVG Version: 6.00 Build 0)  -->
<svg version="1.0" id="katman_1" xmlns="http://www.w3.org/2000/svg" xmlns:xlink="http://www.w3.org/1999/xlink" x="0px" y="0px"
	 viewBox="0 0 560 400" style="enable-background:new 0 0 560 400;" xml:space="preserve">
<g>
	<desc>Created with Sketch.</desc>
	<g id="icKitty">
		<g id="kitty" transform="translate(16.000000, 0.000000)">
			<g id="Vector" transform="translate(10.000000, 0.000000)">
				<g id="path0_stroke-link" transform="translate(0.190000, 0.000000)">
					<path id="path0_stroke" d="M354.5,151.4h3.6c0-0.9-0.4-1.8-1-2.5L354.5,151.4z M343.2,139.6l-3.6-0.1c0,1,0.3,1.9,1,2.6
						L343.2,139.6z M314.8,108.9l-3.6,0.2c0.1,1.6,1.2,2.9,2.7,3.3L314.8,108.9z M313.1,80.5l3.6-0.2c-0.1-1.2-0.7-2.3-1.8-2.9
						c-1-0.6-2.3-0.7-3.4-0.2L313.1,80.5z M250.4,166.8l0.1,3.6c1.7-0.1,3.1-1.3,3.4-3L250.4,166.8z M168.8,317.5l-2.8,2.2
						c0.7,0.9,1.7,1.4,2.8,1.4V317.5z M266.4,317.5v3.6c2,0,3.6-1.6,3.6-3.6H266.4z M230.3,301.5v-3.6c-2,0-3.6,1.6-3.6,3.5
						c0,2,1.5,3.6,3.5,3.7L230.3,301.5z M287.1,158.5c-1.4,3.3-1.4,3.3-1.4,3.3c0,0,0,0,0,0c0,0,0,0,0,0c0,0,0,0,0,0c0,0,0,0,0.1,0
						c0.1,0,0.2,0.1,0.3,0.1c0.2,0.1,0.6,0.2,1.1,0.4c0.9,0.4,2.3,0.9,3.9,1.5c3.3,1.2,7.9,2.8,13.1,4.4c10.2,3.1,23.2,6.3,32.8,5.6
						l-0.5-7.2c-8.1,0.5-20-2.2-30.2-5.3c-5-1.5-9.5-3.1-12.7-4.3c-1.6-0.6-2.9-1.1-3.8-1.4c-0.4-0.2-0.8-0.3-1-0.4
						c-0.1,0-0.2-0.1-0.3-0.1c0,0,0,0-0.1,0c0,0,0,0,0,0c0,0,0,0,0,0c0,0,0,0,0,0C288.4,155.2,288.4,155.2,287.1,158.5z M337,173.9
						c10.4-0.7,15.8-6.4,18.5-11.9c1.3-2.7,1.9-5.3,2.3-7.2c0.2-1,0.2-1.8,0.3-2.4c0-0.3,0-0.5,0-0.7c0-0.1,0-0.2,0-0.2
						c0,0,0,0,0-0.1c0,0,0,0,0,0c0,0,0,0,0,0c0,0,0,0,0,0c0,0,0,0-3.6,0s-3.6,0-3.6,0c0,0,0,0,0,0c0,0,0,0,0,0c0,0,0,0,0,0
						c0,0,0,0,0,0c0,0,0,0,0,0.1c0,0.1,0,0.2,0,0.4c0,0.4-0.1,1-0.2,1.7c-0.2,1.4-0.7,3.3-1.6,5.2c-1.8,3.6-5.2,7.4-12.5,7.9
						L337,173.9z M357.1,148.9l-11.2-11.8l-5.2,5l11.2,11.8L357.1,148.9z M343.2,139.6c3.6,0.2,3.6,0.1,3.6,0.1c0,0,0,0,0,0
						c0,0,0,0,0,0c0,0,0,0,0,0c0,0,0,0,0,0c0,0,0-0.1,0-0.2c0-0.1,0-0.3,0-0.5c0-0.5,0-1.1,0-1.9c-0.1-1.6-0.3-3.7-0.7-6.1
						c-0.9-4.6-2.8-10.8-7.6-14.9l-4.6,5.5c2.9,2.4,4.5,6.6,5.2,10.7c0.4,2,0.5,3.8,0.6,5.1c0,0.7,0,1.2,0,1.5c0,0.2,0,0.3,0,0.4
						c0,0,0,0.1,0,0.1c0,0,0,0,0,0c0,0,0,0,0,0c0,0,0,0,0,0c0,0,0,0,0,0C339.6,139.4,339.6,139.4,343.2,139.6z M338.5,116.2
						c-4.3-3.6-10.1-6.3-14.5-8.1c-2.3-0.9-4.3-1.6-5.8-2c-0.7-0.2-1.3-0.4-1.7-0.5c-0.2-0.1-0.4-0.1-0.5-0.1c-0.1,0-0.1,0-0.1,0
						c0,0,0,0,0,0c0,0,0,0,0,0c0,0,0,0,0,0c0,0,0,0,0,0c0,0,0,0-0.9,3.5c-0.9,3.5-0.9,3.5-0.9,3.5c0,0,0,0,0,0c0,0,0,0,0,0
						c0,0,0,0,0,0c0,0,0,0,0,0c0,0,0.1,0,0.1,0c0.1,0,0.2,0.1,0.4,0.1c0.4,0.1,0.9,0.3,1.6,0.5c1.3,0.4,3.2,1,5.3,1.8
						c4.3,1.7,9.1,4,12.5,6.9L338.5,116.2z M318.4,108.6l-1.8-28.4l-7.2,0.4l1.8,28.4L318.4,108.6z M313.1,80.5
						c-1.5-3.3-1.5-3.3-1.5-3.3c0,0,0,0,0,0c0,0,0,0,0,0c0,0,0,0,0,0c0,0,0,0-0.1,0c-0.1,0-0.2,0.1-0.3,0.1
						c-0.2,0.1-0.6,0.3-1.1,0.5c-0.9,0.5-2.2,1.2-3.9,2.1c-3.2,1.8-7.7,4.5-12.6,7.9c-9.7,6.8-21.4,17-28.6,29.8l6.3,3.5
						c6.4-11.4,17.1-20.8,26.5-27.4c4.6-3.3,8.9-5.8,11.9-7.5c1.5-0.9,2.8-1.5,3.6-1.9c0.4-0.2,0.7-0.4,1-0.5
						c0.1-0.1,0.2-0.1,0.2-0.1c0,0,0,0,0.1,0c0,0,0,0,0,0c0,0,0,0,0,0c0,0,0,0,0,0C314.6,83.7,314.6,83.7,313.1,80.5z M265,117.7
						c-7,12.4-11.5,24.5-14.3,33.4c-1.4,4.5-2.4,8.2-3,10.8c-0.3,1.3-0.5,2.3-0.7,3c-0.1,0.4-0.1,0.6-0.2,0.8c0,0.1,0,0.2,0,0.2
						c0,0,0,0,0,0.1c0,0,0,0,0,0c0,0,0,0,0,0c0,0,0,0,0,0c0,0,0,0,3.5,0.6c3.5,0.6,3.5,0.6,3.5,0.6v0c0,0,0,0,0,0c0,0,0,0,0,0
						c0,0,0,0,0,0c0,0,0-0.1,0-0.2c0-0.2,0.1-0.4,0.1-0.7c0.1-0.6,0.3-1.6,0.6-2.8c0.6-2.5,1.5-6,2.8-10.3c2.7-8.6,7-20.2,13.7-32
						L265,117.7z M250.4,166.8c-0.1-3.6-0.1-3.6-0.1-3.6c0,0,0,0,0,0c0,0,0,0,0,0c0,0,0,0,0,0c0,0-0.1,0-0.2,0c-0.1,0-0.4,0-0.6,0
						c-0.6,0-1.4,0.1-2.4,0.2c-2,0.2-4.9,0.5-8.5,1.1c-7.1,1.1-16.7,3.3-27,7.3c-20.5,8-43.9,23.5-53.8,53.6l6.8,2.3
						c9-27.3,30.2-41.6,49.6-49.1c9.7-3.8,18.8-5.8,25.5-6.9c3.4-0.5,6.1-0.8,8-1c0.9-0.1,1.7-0.1,2.2-0.2c0.2,0,0.4,0,0.5,0
						c0.1,0,0.1,0,0.1,0c0,0,0,0,0,0c0,0,0,0,0,0h0C250.5,170.4,250.5,170.4,250.4,166.8z M157.7,225.3c-9.7,29.4-7.8,52.9-3.3,69.1
						c2.2,8.1,5.1,14.4,7.4,18.6c1.2,2.1,2.2,3.8,2.9,4.9c0.4,0.6,0.7,1,0.9,1.3c0.1,0.1,0.2,0.3,0.3,0.4c0,0,0.1,0.1,0.1,0.1
						c0,0,0,0,0,0c0,0,0,0,0,0c0,0,0,0,0,0c0,0,0,0,2.8-2.2c2.8-2.2,2.8-2.2,2.8-2.2c0,0,0,0,0,0c0,0,0,0,0,0c0,0,0,0,0,0
						c0,0,0,0,0,0c0,0-0.1-0.1-0.2-0.2c-0.2-0.2-0.4-0.6-0.7-1c-0.6-0.9-1.5-2.4-2.6-4.3c-2.1-3.8-4.7-9.6-6.8-17.1
						c-4.1-15-6-37,3.2-64.9L157.7,225.3z M168.8,321.1h97.6v-7.2h-97.6V321.1z M270,317.5c0-10.9-8.7-19.6-19.6-19.6v7.2
						c6.9,0,12.4,5.5,12.4,12.4H270z M250.4,297.9h-20.1v7.2h20.1V297.9z M230.3,301.5c-0.1,3.6-0.1,3.6-0.1,3.6c0,0,0,0,0,0
						c0,0,0,0,0,0c0,0,0,0,0,0c0,0,0.1,0,0.1,0c0.1,0,0.2,0,0.4,0c0.3,0,0.8,0,1.4,0c1.2,0,2.8-0.1,4.8-0.3
						c3.9-0.4,9.2-1.4,14.5-3.5c5.3-2.1,10.9-5.4,15.1-10.7c4.3-5.3,7-12.4,7-21.5h-7.2c0,7.7-2.2,13.1-5.4,17
						c-3.2,4-7.6,6.7-12.1,8.5c-4.6,1.8-9.2,2.7-12.7,3c-1.7,0.2-3.2,0.3-4.2,0.3c-0.5,0-0.9,0-1.1,0c-0.1,0-0.2,0-0.3,0
						c0,0,0,0-0.1,0c0,0,0,0,0,0c0,0,0,0,0,0c0,0,0,0,0,0C230.4,297.9,230.4,297.9,230.3,301.5z M273.5,269c0-9.2-2.8-16.4-7.2-21.9
						c-4.3-5.4-10-9.1-15.5-11.5c-5.5-2.4-10.9-3.7-15-4.3c-2-0.3-3.7-0.5-4.9-0.6c-0.6-0.1-1.1-0.1-1.4-0.1c-0.2,0-0.3,0-0.4,0
						c0,0-0.1,0-0.1,0c0,0,0,0,0,0c0,0,0,0,0,0c0,0,0,0,0,0c0,0,0,0-0.1,3.6c-0.1,3.6-0.1,3.6-0.1,3.6c0,0,0,0,0,0c0,0,0,0,0,0
						c0,0,0,0,0,0c0,0,0,0,0.1,0c0.1,0,0.2,0,0.3,0c0.3,0,0.7,0,1.2,0.1c1,0.1,2.6,0.3,4.4,0.6c3.7,0.6,8.5,1.7,13.3,3.8
						c4.8,2.1,9.4,5.1,12.8,9.4c3.3,4.2,5.6,9.8,5.6,17.4H273.5z"/>
				</g>
			</g>
			<g id="Vector_1_" transform="translate(42.000000, 24.000000)">
				<g id="path1_stroke-link" transform="translate(0.310000, 0.300000)">
					<path id="path1_stroke" d="M282.1,174.1l3.6,0.2v0L282.1,174.1z M269.7,227.5l-3.3-1.4l0,0L269.7,227.5z M265.6,237l-3.3-1.4
						c-0.2,0.5-0.3,0.9-0.3,1.4H265.6z M265.6,276H262c0,2,1.6,3.6,3.6,3.6V276z M285.1,293.2v3.6c2,0,3.6-1.6,3.6-3.6H285.1z
						 M256.7,293.2l-3.6,0.4c0.2,1.8,1.7,3.2,3.6,3.2V293.2z M285.2,141.4c-2.5,3.3-3.9,8.6-4.9,14c-1,5.6-1.5,12.2-1.8,18.4
						l7.2,0.3c0.3-6.1,0.8-12.3,1.7-17.6c0.9-5.4,2.2-9.1,3.5-10.9L285.2,141.4z M278.5,173.9c-0.9,17.9-4.9,35.8-12.1,52.2l6.6,2.9
						c7.6-17.3,11.8-36,12.7-54.8L278.5,173.9z M266.4,226.1l-4.1,9.5l6.6,2.9l4.1-9.5L266.4,226.1z M262,237v39h7.2v-39H262z
						 M265.6,279.6h2.4v-7.2h-2.4V279.6z M267.9,279.6c7.5,0,13.5,6.1,13.5,13.5h7.2c0-11.4-9.3-20.7-20.7-20.7V279.6z M285.1,289.6
						h-28.4v7.2h28.4V289.6z M256.7,293.2c3.6-0.4,3.6-0.4,3.6-0.4c0,0,0,0,0,0c0,0,0,0,0,0c0,0,0,0,0,0c0,0,0,0,0-0.1
						c0-0.1,0-0.2,0-0.3c0-0.2-0.1-0.6-0.1-1c-0.1-0.8-0.3-2.1-0.6-3.6c-0.5-3-1.4-7.3-2.8-12.3c-2.8-9.9-7.7-22.8-16-34.2l-5.8,4.2
						c7.6,10.5,12.2,22.4,14.9,31.9c1.3,4.7,2.2,8.7,2.7,11.6c0.3,1.4,0.4,2.5,0.5,3.3c0.1,0.4,0.1,0.7,0.1,0.9c0,0.1,0,0.2,0,0.2
						c0,0,0,0,0,0c0,0,0,0,0,0c0,0,0,0,0,0c0,0,0,0,0,0C253.1,293.5,253.1,293.5,256.7,293.2z"/>
				</g>
			</g>
			<g id="Vector_2_" transform="translate(0.000000, 21.000000)">
				<g id="path2_stroke-link">
					<path id="path2_stroke" d="M178.7,292.8c-15.9,0-27.5-7.5-35.4-18c-7.9-10.7-11.9-24.5-11.9-36.9h-7.2
						c0,13.7,4.3,29.1,13.3,41.2c9,12.2,22.7,21,41.2,21V292.8z M131.4,237.9c0-5.8,1.9-12.5,5-19.7c3.1-7.2,7.2-14.7,11.4-22.2
						c4.2-7.3,8.5-14.7,11.7-21.3c3.2-6.5,5.6-12.9,5.6-18.4H158c0,3.7-1.8,8.8-4.9,15.2c-3.1,6.3-7.2,13.4-11.5,20.9
						c-4.2,7.4-8.5,15.3-11.8,22.9c-3.2,7.6-5.6,15.3-5.6,22.5H131.4z M165.1,156.3c0-6.1-1.5-10.9-4-14.6c-2.5-3.7-5.8-6-9-7.5
						c-3.2-1.5-6.3-2.2-8.6-2.5c-1.2-0.2-2.1-0.2-2.8-0.3c-0.3,0-0.6,0-0.8,0c-0.1,0-0.2,0-0.2,0c0,0-0.1,0-0.1,0c0,0,0,0,0,0
						c0,0,0,0,0,0c0,0,0,0,0,0c0,0,0,0,0.1,3.6c0.1,3.6,0.1,3.6,0.1,3.6c0,0,0,0,0,0c0,0,0,0,0,0c0,0,0,0,0,0c0,0,0,0,0,0
						c0,0,0.1,0,0.1,0c0.1,0,0.3,0,0.6,0c0.5,0,1.2,0.1,2.1,0.2c1.8,0.3,4.2,0.8,6.5,1.9c2.3,1.1,4.5,2.7,6.1,5.1
						c1.6,2.4,2.8,5.7,2.8,10.5H165.1z"/>
				</g>
			</g>
			<g id="Vector_3_" transform="translate(54.000000, 1.000000)">
				<g id="path3_stroke-link" transform="translate(0.640000, 0.300000)">
					<path id="path3_stroke" d="M282.2,83.9l3.6-0.3c-0.1-1.3-1-2.5-2.2-3c-1.3-0.5-2.7-0.3-3.7,0.6L282.2,83.9z M288.2,113.1
						l-2.4-29.6l-7.2,0.6l2.4,29.6L288.2,113.1z M279.9,81.1l-12.4,10.6l4.7,5.5l12.4-10.6L279.9,81.1z"/>
				</g>
			</g>
		</g>
	</g>
</g>
</svg>
